<?xml version="1.0" encoding="UTF-8"?> <svg width="1920" height="540" viewBox="0 0 1920 540" fill="none" xmlns="http://www.w3.org/2000/svg">
<g clip-path="url(#clip0_330_3429)">
<rect width="1920" height="540" fill="white"/>
<g clip-path="url(#clip1_330_3429)">
<path d="M1958 0H40V541H1958V0Z" fill="url(#paint0_linear_330_3429)"/>
<path fill-rule="evenodd" clip-rule="evenodd" d="M1128.56 459.794C1184.7 417.81 1235.93 360.886 1305.95 362.655C1366.21 364.178 1385.23 458.106 1444.73 467.786C1598.22 492.756 1780.63 350.876 1893.38 458.216C2007.7 567.063 2016.15 794.096 1913.27 913.865C1811.42 1032.43 1619.95 974.762 1464.86 957.061C1374.73 946.774 1319.67 861.417 1232.52 836.169C1078.81 791.637 820.131 912.451 777.445 757.904C734.904 603.88 1000.76 555.371 1128.56 459.794Z" fill="url(#paint1_linear_330_3429)"/>
<path fill-rule="evenodd" clip-rule="evenodd" d="M211.771 141.19C90.1366 251.74 223.044 582.931 59.0317 590.758C-101.821 598.433 -153.024 356.591 -276.718 253.247C-430.639 124.653 -769.662 276.359 -830.045 84.8586C-883.593 -84.959 -561.847 -117.582 -431.979 -239.141C-311.243 -352.151 -270.556 -557.135 -108.709 -590.325C68.8589 -626.736 253.729 -535.288 380.87 -405.825C507.128 -277.261 637.958 -74.8998 554.366 84.8588C468.637 248.706 348.513 16.9095 211.771 141.19Z" fill="url(#paint2_linear_330_3429)"/>
<path fill-rule="evenodd" clip-rule="evenodd" d="M2232.16 -173.993C2243.84 0.780273 1995.77 80.7489 1827.35 127.526C1720.9 157.087 1636.8 27.7165 1526.51 21.989C1429.06 16.9295 1342.87 98.2733 1254.52 56.7626C1157.91 11.3621 1138.93 -71.2122 1109.43 -173.993C1061.94 -339.44 937.038 -524.816 1036.24 -665.363C1136.34 -807.193 1360.55 -815.08 1526.51 -764.911C1665.61 -722.857 1678.04 -531.007 1789.54 -437.634C1926.47 -322.981 2220.22 -352.409 2232.16 -173.993Z" fill="url(#paint3_linear_330_3429)"/>
<path fill-rule="evenodd" clip-rule="evenodd" d="M785.279 468.272C729.14 426.288 684.078 374.105 615.075 374.105C546.074 374.105 505.201 458.594 445.7 468.273C292.205 493.244 109.791 351.364 -2.95403 458.704C-117.282 567.551 -125.724 794.582 -22.8391 914.351C79.0076 1032.92 270.468 975.249 425.563 957.548C515.695 947.261 570.76 861.904 657.907 836.656C811.611 792.125 1070.3 912.937 1112.98 758.391C1155.52 604.367 913.079 563.849 785.279 468.272Z" fill="url(#paint4_linear_330_3429)"/>
<path d="M109.967 70.8972L109.967 70.8978L118.303 84.7597C118.303 84.7599 118.303 84.7601 118.304 84.7603C119.79 87.2507 122.492 88.8104 125.392 88.8529C125.392 88.8529 125.392 88.8529 125.393 88.8529L141.566 89.1413L141.566 89.1413C149.046 89.2647 151.687 99.1199 145.271 102.967L145.27 102.967L131.408 111.303C131.408 111.303 131.408 111.303 131.408 111.303C128.917 112.79 127.358 115.492 127.315 118.392C127.315 118.392 127.315 118.393 127.315 118.393L127.027 134.566L127.027 134.566C126.903 142.046 117.048 144.687 113.201 138.271L113.201 138.27L104.865 124.408C104.865 124.408 104.865 124.408 104.864 124.407C103.378 121.917 100.676 120.358 97.776 120.315C97.7758 120.315 97.7755 120.315 97.7753 120.315L81.6025 120.027L81.6018 120.027C74.122 119.903 71.4814 110.048 77.8973 106.201L77.8979 106.201L91.7598 97.8648C91.7601 97.8646 91.7605 97.8644 91.7609 97.8642C94.2509 96.3774 95.8104 93.6763 95.8529 90.7765C95.853 90.7761 95.853 90.7757 95.853 90.7752L96.1414 74.6024L96.1414 74.6017C96.2648 67.122 106.12 64.4813 109.967 70.8972Z" stroke="white"/>
<path d="M500.027 149.602L500.027 149.602L500.315 165.775C500.315 165.776 500.315 165.776 500.315 165.776C500.358 168.676 501.917 171.378 504.407 172.864C504.408 172.865 504.408 172.865 504.408 172.865L518.27 181.201L518.271 181.201C524.687 185.048 522.046 194.903 514.566 195.027L514.566 195.027L498.393 195.315C498.393 195.315 498.392 195.315 498.392 195.315C495.492 195.358 492.79 196.917 491.303 199.408C491.303 199.408 491.303 199.408 491.303 199.408L482.967 213.27L482.967 213.271C479.12 219.687 469.265 217.046 469.141 209.566L469.141 209.566L468.853 193.393C468.853 193.392 468.853 193.392 468.853 193.392C468.81 190.492 467.251 187.79 464.76 186.304C464.76 186.303 464.76 186.303 464.76 186.303L450.898 177.967L450.897 177.967C444.481 174.12 447.122 164.265 454.602 164.141L454.602 164.141L470.775 163.853C470.776 163.853 470.776 163.853 470.776 163.853C473.676 163.81 476.377 162.251 477.864 159.761C477.864 159.76 477.865 159.76 477.865 159.76L486.201 145.898L486.201 145.897C490.048 139.481 499.903 142.122 500.027 149.602Z" stroke="white"/>
<path d="M175.027 371.602L175.027 371.602L175.315 387.775C175.315 387.776 175.315 387.776 175.315 387.776C175.358 390.676 176.917 393.378 179.407 394.864C179.408 394.865 179.408 394.865 179.408 394.865L193.27 403.201L193.271 403.201C199.687 407.048 197.046 416.903 189.566 417.027L189.566 417.027L173.393 417.315C173.393 417.315 173.392 417.315 173.392 417.315C170.492 417.358 167.79 418.917 166.303 421.408C166.303 421.408 166.303 421.408 166.303 421.408L157.967 435.27L157.967 435.271C154.12 441.687 144.265 439.046 144.141 431.566L144.141 431.566L143.853 415.393C143.853 415.392 143.853 415.392 143.853 415.392C143.81 412.492 142.251 409.79 139.76 408.304C139.76 408.303 139.76 408.303 139.76 408.303L125.898 399.967L125.897 399.967C119.481 396.12 122.122 386.265 129.602 386.141L129.602 386.141L145.775 385.853C145.776 385.853 145.776 385.853 145.776 385.853C148.676 385.81 151.377 384.251 152.864 381.761C152.864 381.76 152.865 381.76 152.865 381.76L161.201 367.898L161.201 367.897C165.048 361.481 174.903 364.122 175.027 371.602Z" stroke="white"/>
<path d="M1329.97 77.8972L1329.97 77.8978L1338.3 91.7597C1338.3 91.7599 1338.3 91.7601 1338.3 91.7603C1339.79 94.2507 1342.49 95.8104 1345.39 95.8529C1345.39 95.8529 1345.39 95.8529 1345.39 95.8529L1361.57 96.1413L1361.57 96.1413C1369.05 96.2647 1371.69 106.12 1365.27 109.967L1365.27 109.967L1351.41 118.303C1351.41 118.303 1351.41 118.303 1351.41 118.303C1348.92 119.79 1347.36 122.492 1347.32 125.392C1347.32 125.392 1347.32 125.393 1347.32 125.393L1347.03 141.566L1347.03 141.566C1346.9 149.046 1337.05 151.687 1333.2 145.271L1333.2 145.27L1324.86 131.408C1324.86 131.408 1324.86 131.408 1324.86 131.407C1323.38 128.917 1320.68 127.358 1317.78 127.315C1317.78 127.315 1317.78 127.315 1317.78 127.315L1301.6 127.027L1301.6 127.027C1294.12 126.903 1291.48 117.048 1297.9 113.201L1297.9 113.201L1311.76 104.865C1311.76 104.865 1311.76 104.864 1311.76 104.864C1314.25 103.377 1315.81 100.676 1315.85 97.7765C1315.85 97.7761 1315.85 97.7757 1315.85 97.7752L1316.14 81.6024L1316.14 81.6017C1316.26 74.122 1326.12 71.4813 1329.97 77.8972Z" stroke="white"/>
<path d="M1792.03 83.6018L1792.03 83.6025L1792.32 99.7753C1792.32 99.7755 1792.32 99.7758 1792.32 99.776C1792.36 102.676 1793.92 105.378 1796.41 106.864C1796.41 106.865 1796.41 106.865 1796.41 106.865L1810.27 115.201L1810.27 115.201C1816.69 119.048 1814.05 128.903 1806.57 129.027L1806.57 129.027L1790.39 129.315C1790.39 129.315 1790.39 129.315 1790.39 129.315C1787.49 129.358 1784.79 130.917 1783.3 133.408C1783.3 133.408 1783.3 133.408 1783.3 133.408L1774.97 147.27L1774.97 147.271C1771.12 153.687 1761.26 151.046 1761.14 143.566L1761.14 143.566L1760.85 127.393C1760.85 127.392 1760.85 127.392 1760.85 127.392C1760.81 124.492 1759.25 121.79 1756.76 120.304C1756.76 120.303 1756.76 120.303 1756.76 120.303L1742.9 111.967L1742.9 111.967C1736.48 108.12 1739.12 98.2648 1746.6 98.1414L1746.6 98.1414L1762.78 97.853C1762.78 97.853 1762.78 97.853 1762.78 97.8529C1765.68 97.8104 1768.38 96.2509 1769.86 93.7609C1769.86 93.7605 1769.86 93.7601 1769.86 93.7598L1778.2 79.8979L1778.2 79.8973C1782.05 73.4814 1791.9 76.122 1792.03 83.6018Z" stroke="white"/>
<path d="M1491.03 441.602L1491.03 441.602L1491.32 457.775C1491.32 457.776 1491.32 457.776 1491.32 457.776C1491.36 460.676 1492.92 463.378 1495.41 464.864C1495.41 464.865 1495.41 464.865 1495.41 464.865L1509.27 473.201L1509.27 473.201C1515.69 477.048 1513.05 486.903 1505.57 487.027L1505.57 487.027L1489.39 487.315C1489.39 487.315 1489.39 487.315 1489.39 487.315C1486.49 487.358 1483.79 488.917 1482.3 491.408C1482.3 491.408 1482.3 491.408 1482.3 491.408L1473.97 505.27L1473.97 505.271C1470.12 511.687 1460.26 509.046 1460.14 501.566L1460.14 501.566L1459.85 485.393C1459.85 485.392 1459.85 485.392 1459.85 485.392C1459.81 482.492 1458.25 479.79 1455.76 478.304C1455.76 478.303 1455.76 478.303 1455.76 478.303L1441.9 469.967L1441.9 469.967C1435.48 466.12 1438.12 456.265 1445.6 456.141L1445.6 456.141L1461.78 455.853C1461.78 455.853 1461.78 455.853 1461.78 455.853C1464.68 455.81 1467.38 454.251 1468.86 451.761C1468.86 451.76 1468.86 451.76 1468.86 451.76L1477.2 437.898L1477.2 437.897C1481.05 431.481 1490.9 434.122 1491.03 441.602Z" stroke="white"/>
<path d="M356.269 384.984C344.409 346.438 419.058 345.163 439.804 352.532C462.488 360.589 485.71 383.592 489.985 408.121C494.929 436.492 469.853 472.305 438.301 468.519C398.81 463.78 427.243 415.578 447.616 407.52C488.528 391.34 543.583 415.511 575.623 440.273C605.788 463.587 622.929 502.491 617.39 540.635C612.558 573.909 588.456 579.957 564.505 595.924" stroke="white" stroke-linecap="round" stroke-dasharray="10 10"/>
<path d="M1283 309.803C1339.64 367.754 1439.67 359.794 1491.47 296.844C1518.26 264.29 1501.41 218.008 1456.91 218.42C1418.47 218.776 1429.59 266.194 1445.43 286.046C1487.11 338.282 1562.38 289.779 1592.2 250.951C1621.56 212.704 1618.43 151.239 1591.66 113" stroke="white" stroke-linecap="round" stroke-dasharray="10 10"/>
</g>
<g clip-path="url(#clip2_330_3429)">
<path d="M805 270L947.445 338.625C955.729 342.625 965.392 342.625 973.675 338.625L1116.25 270" stroke="white" stroke-width="12" stroke-miterlimit="10" stroke-linecap="round" stroke-linejoin="round"/>
<path d="M840.141 153.75L805.251 175H805V375C805 386 814.036 395 825.08 395H1096.17C1107.21 395 1116.25 386 1116.25 375V175H1116L1081.11 153.75" stroke="white" stroke-width="12" stroke-miterlimit="10" stroke-linecap="round" stroke-linejoin="round"/>
<path d="M894.734 120L944.935 89.375C954.599 83.5 966.773 83.5 976.437 89.375L1026.64 120" stroke="white" stroke-width="12" stroke-miterlimit="10" stroke-linecap="round" stroke-linejoin="round"/>
<path d="M840.141 250V130C840.141 124.5 844.659 120 850.181 120H1071.07C1076.59 120 1081.11 124.5 1081.11 130V250" stroke="white" stroke-width="12" stroke-miterlimit="10" stroke-linecap="round" stroke-linejoin="round"/>
<path d="M1000.78 170L920.463 280" stroke="white" stroke-width="12" stroke-miterlimit="10" stroke-linecap="round" stroke-linejoin="round"/>
<path d="M920.464 215C934.326 215 945.564 203.807 945.564 190C945.564 176.193 934.326 165 920.464 165C906.601 165 895.363 176.193 895.363 190C895.363 203.807 906.601 215 920.464 215Z" stroke="white" stroke-width="12" stroke-miterlimit="10" stroke-linecap="round" stroke-linejoin="round"/>
<path d="M1000.78 285C1014.65 285 1025.88 273.807 1025.88 260C1025.88 246.193 1014.65 235 1000.78 235C986.921 235 975.684 246.193 975.684 260C975.684 273.807 986.921 285 1000.78 285Z" stroke="white" stroke-width="12" stroke-miterlimit="10" stroke-linecap="round" stroke-linejoin="round"/>
</g>
</g>
<defs>
<linearGradient id="paint0_linear_330_3429" x1="21.9906" y1="525.598" x2="700.392" y2="1239.44" gradientUnits="userSpaceOnUse">
<stop stop-color="#FB5767"/>
<stop offset="0.511447" stop-color="#FB6D57"/>
<stop offset="1" stop-color="#FB7A55"/>
</linearGradient>
<linearGradient id="paint1_linear_330_3429" x1="1291.86" y1="732.106" x2="1117.23" y2="289.832" gradientUnits="userSpaceOnUse">
<stop stop-color="#FB5767"/>
<stop offset="0.681623" stop-color="#FB6D57"/>
<stop offset="1" stop-color="#FB7A55"/>
</linearGradient>
<linearGradient id="paint2_linear_330_3429" x1="-27.1443" y1="143.267" x2="29.3757" y2="-207.176" gradientUnits="userSpaceOnUse">
<stop stop-color="#FB5767"/>
<stop offset="0.454711" stop-color="#FB6D57"/>
<stop offset="1" stop-color="#FB7A55"/>
</linearGradient>
<linearGradient id="paint3_linear_330_3429" x1="2232.55" y1="-330.544" x2="998.962" y2="-330.544" gradientUnits="userSpaceOnUse">
<stop stop-color="#FB5767"/>
<stop offset="1" stop-color="#FB7156"/>
</linearGradient>
<linearGradient id="paint4_linear_330_3429" x1="510.921" y1="746.556" x2="778.667" y2="308.222" gradientUnits="userSpaceOnUse">
<stop stop-color="#FB5767"/>
<stop offset="0.681623" stop-color="#FB6D57"/>
<stop offset="1" stop-color="#FB7A55"/>
</linearGradient>
<clipPath id="clip0_330_3429">
<rect width="1920" height="540" fill="white"/>
</clipPath>
<clipPath id="clip1_330_3429">
<rect width="1920" height="540" fill="white"/>
</clipPath>
<clipPath id="clip2_330_3429">
<rect width="320" height="320" fill="white" transform="translate(800 80)"/>
</clipPath>
</defs>
</svg>
